<?xml version="1.0" encoding="UTF-8"?>
<svg xmlns="http://www.w3.org/2000/svg" xmlns:xlink="http://www.w3.org/1999/xlink" width="299.9pt" height="154.2pt" viewBox="0 0 299.9 154.2" version="1.1">
<defs>
<clipPath id="clip1">
  <path d="M 229 22 L 299.898438 22 L 299.898438 97 L 229 97 Z M 229 22 "/>
</clipPath>
</defs>
<g id="surface1">
<path style="fill-rule:evenodd;fill:rgb(10.594177%,9.812927%,9.423828%);fill-opacity:1;stroke-width:5.669;stroke-linecap:butt;stroke-linejoin:miter;stroke:rgb(10.594177%,9.812927%,9.423828%);stroke-opacity:1;stroke-miterlimit:4;" d="M 1727.539063 1345.90625 C 1727.539063 1345.90625 1246.679688 1199.03125 1076.210938 908.132813 C 909.335938 623.40625 934.84375 290.398438 1109.765625 135.320313 C 1262.03125 0.320313 1588.75 8.757813 1811.835938 157.625 C 1974.648438 266.257813 2043.867188 428.484375 2045.351563 628.132813 C 2047.460938 906.6875 1531.132813 931.648438 1534.6875 820.945313 C 1536.367188 769.070313 1627.890625 765.59375 1735.585938 746.492188 C 1857.65625 724.8125 1997.5 679.96875 1995.351563 603.132813 C 1991.367188 459.890625 1952.5 388.992188 1808.515625 282.46875 C 1647.734375 163.484375 1361.835938 123.914063 1199.023438 228.171875 C 1024.335938 340.046875 1003.984375 726.765625 1167.617188 917.039063 C 1365.117188 1146.648438 1790.664063 1244.109375 1918.828125 1328.289063 C 1934.0625 1338.328125 1941.328125 1402.15625 1919.179688 1413.875 C 1777.539063 1488.875 1253.828125 1542.78125 1053.359375 1470.867188 C 982.96875 1445.59375 974.84375 1306.335938 1015.664063 1254.304688 C 1098.28125 1149.109375 1239.140625 1090.554688 1239.140625 1090.554688 L 1336.054688 1160.90625 C 1336.054688 1160.90625 1056.171875 1260.203125 1059.765625 1353.054688 C 1063.320313 1445.867188 1727.539063 1345.90625 1727.539063 1345.90625 Z M 1727.539063 1345.90625 " transform="matrix(0.1,0,0,-0.1,0,154.2)"/>
<path style="fill-rule:evenodd;fill:rgb(98.4375%,0.392151%,0.392151%);fill-opacity:1;stroke-width:21.26;stroke-linecap:butt;stroke-linejoin:miter;stroke:rgb(10.594177%,9.812927%,9.423828%);stroke-opacity:1;stroke-miterlimit:4;" d="M 235.507813 1410.398438 L 237.890625 723.601563 L 32.539063 560.75 C 32.539063 560.75 21.40625 576.84375 30.273438 594.929688 C 48.4375 631.921875 93.90625 688.054688 93.90625 707.078125 C 93.90625 735.398438 91.5625 1275.867188 91.5625 1275.867188 C 91.5625 1275.867188 94.570313 1318.835938 80.429688 1339.929688 C 66.25 1361.023438 13.671875 1341.453125 13.671875 1341.453125 L 11.25 1369.65625 L 156.796875 1474.460938 C 176.757813 1488.835938 208.164063 1485.90625 223.710938 1474.148438 C 239.257813 1462.351563 235.507813 1410.398438 235.507813 1410.398438 Z M 235.507813 1410.398438 " transform="matrix(0.1,0,0,-0.1,0,154.2)"/>
<path style="fill-rule:evenodd;fill:rgb(98.4375%,0.392151%,0.392151%);fill-opacity:1;stroke-width:21.26;stroke-linecap:butt;stroke-linejoin:miter;stroke:rgb(10.594177%,9.812927%,9.423828%);stroke-opacity:1;stroke-miterlimit:4;" d="M 360.703125 1075.359375 C 360.703125 1075.359375 357.617188 973.953125 367.539063 881.84375 C 378.125 783.796875 402.460938 694.65625 428.320313 695.398438 C 476.09375 696.726563 520.507813 746.414063 576.71875 809.304688 C 638.476563 878.367188 687.34375 961.179688 687.34375 961.179688 L 687.34375 709.304688 L 832.148438 795.632813 L 831.5625 1208.210938 L 681.757813 1132.625 C 681.757813 1132.625 678.28125 1064.5 654.960938 1003.25 C 631.640625 941.960938 588.476563 887.546875 542.5 895.90625 C 450.625 912.625 503.515625 1163.289063 481.25 1191.140625 C 475 1198.953125 447.929688 1203.679688 426.015625 1194.421875 C 370 1170.789063 280.3125 1104.382813 280.3125 1104.382813 L 289.960938 1074.421875 Z M 360.703125 1075.359375 " transform="matrix(0.1,0,0,-0.1,0,154.2)"/>
<path style="fill-rule:evenodd;fill:rgb(98.4375%,0.392151%,0.392151%);fill-opacity:1;stroke-width:21.26;stroke-linecap:butt;stroke-linejoin:miter;stroke:rgb(10.594177%,9.812927%,9.423828%);stroke-opacity:1;stroke-miterlimit:4;" d="M 859.492188 1057.664063 L 854.84375 1078.601563 C 854.84375 1078.601563 977.148438 1204.382813 1031.875 1190.398438 C 1057.109375 1183.992188 1061.757813 1135.945313 1066.953125 1086.0625 C 1073.007813 1027.742188 1077.304688 966.804688 1077.304688 966.804688 C 1077.304688 966.804688 1251.992188 1197.390625 1338.164063 1185.75 C 1362.617188 1182.46875 1369.414063 1167.703125 1373.203125 1149.304688 C 1397.421875 1030.867188 1418.203125 884.851563 1429.023438 787.429688 L 1305.546875 709.421875 C 1305.546875 709.421875 1289.257813 1011.0625 1213.554688 1013.40625 C 1137.851563 1015.710938 965.46875 689.617188 965.46875 689.617188 C 965.46875 689.617188 936.367188 1049.5 929.375 1068.132813 C 922.382813 1086.765625 859.492188 1057.664063 859.492188 1057.664063 Z M 859.492188 1057.664063 " transform="matrix(0.1,0,0,-0.1,0,154.2)"/>
<path style=" stroke:none;fill-rule:evenodd;fill:rgb(98.4375%,0.392151%,0.392151%);fill-opacity:1;" d="M 241.867188 47.632813 L 241.398438 45.539063 C 241.398438 45.539063 253.628906 32.960938 259.101563 34.355469 C 261.625 35 262.089844 39.800781 262.609375 44.792969 C 263.214844 50.625 263.644531 56.71875 263.644531 56.71875 C 263.644531 56.71875 279.636719 33.121094 288.253906 34.285156 C 290.605469 34.601563 291.261719 36.101563 292.019531 38.640625 C 295.519531 50.347656 298.0625 67.878906 298.816406 74.652344 L 286.472656 82.457031 C 286.472656 82.457031 284.839844 52.292969 277.269531 52.058594 C 269.699219 51.828125 252.464844 84.4375 252.464844 84.4375 C 252.464844 84.4375 249.550781 48.449219 248.855469 46.585938 C 248.15625 44.722656 241.867188 47.632813 241.867188 47.632813 Z M 241.867188 47.632813 "/>
<g clip-path="url(#clip1)" clip-rule="nonzero">
<path style="fill:none;stroke-width:21.26;stroke-linecap:butt;stroke-linejoin:miter;stroke:rgb(10.594177%,9.812927%,9.423828%);stroke-opacity:1;stroke-miterlimit:4;" d="M 2418.671875 1065.671875 L 2413.984375 1086.609375 C 2413.984375 1086.609375 2536.289063 1212.390625 2591.015625 1198.445313 C 2616.25 1192 2620.898438 1143.992188 2626.09375 1094.070313 C 2632.148438 1035.75 2636.445313 974.8125 2636.445313 974.8125 C 2636.445313 974.8125 2796.367188 1210.789063 2882.539063 1199.148438 C 2906.054688 1195.984375 2912.617188 1180.984375 2920.195313 1155.59375 C 2955.195313 1038.523438 2980.625 863.210938 2988.164063 795.476563 L 2864.726563 717.429688 C 2864.726563 717.429688 2848.398438 1019.070313 2772.695313 1021.414063 C 2696.992188 1023.71875 2524.648438 697.625 2524.648438 697.625 C 2524.648438 697.625 2495.507813 1057.507813 2488.554688 1076.140625 C 2481.5625 1094.773438 2418.671875 1065.671875 2418.671875 1065.671875 Z M 2418.671875 1065.671875 " transform="matrix(0.1,0,0,-0.1,0,154.2)"/>
</g>
<path style="fill-rule:evenodd;fill:rgb(98.4375%,0.392151%,0.392151%);fill-opacity:1;stroke-width:21.26;stroke-linecap:butt;stroke-linejoin:miter;stroke:rgb(10.594177%,9.812927%,9.423828%);stroke-opacity:1;stroke-miterlimit:4;" d="M 1560.3125 1111.023438 C 1560.3125 1111.023438 1639.140625 1221.84375 1754.570313 1204.734375 C 1869.960938 1187.585938 1904.257813 1089.304688 1901.953125 980.75 C 1899.6875 872.234375 1803.203125 693.757813 1623.164063 711.101563 C 1487.34375 724.1875 1412.8125 901.414063 1507.148438 1002.820313 C 1545.703125 1044.265625 1601.445313 1068.757813 1601.445313 1068.757813 C 1601.445313 1068.757813 1573.75 973.640625 1600.742188 908.367188 C 1627.734375 843.09375 1709.414063 807.664063 1754.570313 844.8125 C 1799.6875 881.921875 1794.84375 995.90625 1736.40625 1052.625 C 1678.007813 1109.304688 1560.3125 1111.023438 1560.3125 1111.023438 Z M 1560.3125 1111.023438 " transform="matrix(0.1,0,0,-0.1,0,154.2)"/>
<path style="fill-rule:evenodd;fill:rgb(98.4375%,0.392151%,0.392151%);fill-opacity:1;stroke-width:21.26;stroke-linecap:butt;stroke-linejoin:miter;stroke:rgb(10.594177%,9.812927%,9.423828%);stroke-opacity:1;stroke-miterlimit:4;" d="M 2044.023438 1111.648438 C 2044.023438 1111.648438 2122.890625 1222.46875 2238.28125 1205.320313 C 2353.710938 1188.171875 2387.96875 1069.773438 2385.703125 961.21875 C 2384.648438 911.453125 2335.78125 856.0625 2287.421875 808.40625 C 2229.101563 751.023438 2165.429688 706.0625 2106.875 711.726563 C 1971.09375 724.8125 1896.523438 902.039063 1990.898438 1003.445313 C 2029.453125 1044.851563 2085.195313 1069.34375 2085.195313 1069.34375 C 2085.195313 1069.34375 2057.460938 974.226563 2084.453125 908.953125 C 2111.445313 843.679688 2193.164063 808.25 2238.28125 845.398438 C 2283.4375 882.507813 2278.554688 996.53125 2220.15625 1053.210938 C 2161.71875 1109.929688 2044.023438 1111.648438 2044.023438 1111.648438 Z M 2044.023438 1111.648438 " transform="matrix(0.1,0,0,-0.1,0,154.2)"/>
<path style="fill-rule:evenodd;fill:rgb(10.594177%,9.812927%,9.423828%);fill-opacity:1;stroke-width:2;stroke-linecap:butt;stroke-linejoin:miter;stroke:rgb(0%,0%,0%);stroke-opacity:1;stroke-miterlimit:4;" d="M 1459.296875 799.265625 C 1459.296875 799.265625 1397.109375 717.195313 1390.078125 633.289063 C 1383.085938 549.382813 1431.289063 463.601563 1477.070313 467 C 1521.445313 470.320313 1546.015625 560.671875 1531.328125 640.28125 C 1515.742188 725.046875 1459.296875 799.265625 1459.296875 799.265625 Z M 1459.296875 799.265625 " transform="matrix(0.1,0,0,-0.1,0,154.2)"/>
</g>
</svg>
